<?xml version="1.0" encoding="UTF-8"?>
<svg width="256px" height="256px" viewBox="0 0 256 256" version="1.1" xmlns="http://www.w3.org/2000/svg" xmlns:xlink="http://www.w3.org/1999/xlink" preserveAspectRatio="xMidYMid">
    <g>
        <path d="M118.432188,249.787189 C116.034785,249.782837 113.770898,248.734222 112.154159,246.955557 L11.4852197,135.292315 C8.82641773,132.337234 8.58868945,127.897536 10.9126433,124.682841 L96.8937215,6.31163636 C98.6901133,3.86273147 101.598252,2.4695279 104.6818,2.60871509 C107.765348,2.74790228 110.543228,4.39620277 112.098342,7.00876945 L242.690454,223.231981 C244.195578,225.762411 244.195578,228.847395 242.690454,231.377825 C241.185329,233.908255 238.419512,235.471086 235.438584,235.471086 L121.464915,235.471086 C120.394375,235.472099 119.332997,235.271917 118.332455,234.879159 C115.905233,243.974773 109.205394,249.787189 118.432188,249.787189 Z" fill="#FF5D01"></path>
        <path d="M159.783354,235.471086 L242.690454,235.471086 C245.671382,235.471086 248.437199,233.908255 249.942324,231.377825 C251.447448,228.847395 251.447448,225.762411 249.942324,223.231981 L187.463423,121.980673 L159.783354,235.471086 Z" fill="#000000" opacity="0.25"></path>
    </g>
</svg>